<svg width="200" height="200" viewBox="0 0 200 200" fill="none" xmlns="http://www.w3.org/2000/svg">
<rect x="20" y="80" width="160" height="100" rx="10" fill="orange"/>
<circle cx="100" cy="60" r="40" fill="red"/>
<path d="M100 20C122.091 20 140 37.9086 140 60C140 82.0914 122.091 100 100 100C77.9086 100 60 82.0914 60 60C60 37.9086 77.9086 20 100 20Z" fill="yellow"/>
<path d="M70 120L60 180H140L130 120H70Z" fill="red"/>
<circle cx="80" cy="60" r="5" fill="white"/>
<circle cx="120" cy="60" r="5" fill="white"/>
<path d="M90 75C90 75 95 80 100 80C105 80 110 75 110 75" stroke="white" stroke-width="2"/>
</svg>